Coordinates
version=1
nRows=23
nColumns=23
inDegrees=yes

Units are S.I. units (second, meters, Newtons, ...)
Angles are in degrees.

endheader
time	thorax_tilt	thorax_list	thorax_rotation	thorax_tx	thorax_ty	thorax_tz	sternoclavicular_r2	sternoclavicular_r3	unrotscap_r3	unrotscap_r2	acromioclavicular_r2	acromioclavicular_r3	acromioclavicular_r1	unrothum_r1	unrothum_r3	unrothum_r2	elv_angle	shoulder_elv	shoulder1_r2	shoulder_rot	elbow_flexion	pro_sup
      3.26400000	     -8.67852226	      0.27091454	    -11.77977391	     -0.37553773	      1.57848364	      0.07247099	     -2.74123910	      1.15923241	     -1.16098186	      2.73938040	     -0.55441545	      4.48113831	      2.01416179	     -2.01566988	     -4.48402395	      0.55490077	    -18.48710243	     11.32038305	     18.48697631	     27.68732060	     23.97579957	     10.25037570
      3.26800000	     -8.67139175	      0.27395944	    -11.77721264	     -0.37539660	      1.57851902	      0.07234963	     -2.74015081	      1.15893553	     -1.16065204	      2.73854744	     -0.55435369	      4.47985001	      2.01377760	     -2.01510883	     -4.48255522	      0.55472858	    -18.49064690	     11.31700508	     18.49050250	     27.68779758	     23.98005200	     10.24953060
      3.27200000	     -8.57737790	      0.29775746	    -11.76117958	     -0.37583753	      1.57884547	      0.07251978	     -2.73085868	      1.15515338	     -1.15657464	      2.72917310	     -0.55252805	      4.46465787	      2.00681743	     -2.00834660	     -4.46721925	      0.55278027	    -18.52924736	     11.27843064	     18.52877251	     27.68693590	     24.04820655	     10.23740962
      3.27600000	     -8.57137008	      0.29803415	    -11.76037481	     -0.37565262	      1.57887020	      0.07236817	     -2.73017594	      1.15478460	     -1.15631644	      2.72846574	     -0.55237226	      4.46345925	      2.00631881	     -2.00778949	     -4.46608821	      0.55264670	    -18.53256668	     11.27647798	     18.53244882	     27.68611716	     24.05421464	     10.23612622
      3.28000000	     -8.57074280	      0.29810415	    -11.76029872	     -0.37564550	      1.57887557	      0.07236097	     -2.73027862	      1.15460094	     -1.15668841	      2.72864475	     -0.55239327	      4.46371514	      2.00683795	     -2.00752718	     -4.46635393	      0.55269190	    -18.53276018	     11.27569918	     18.53263129	     27.68607207	     24.05477710	     10.23604147
      3.28400000	     -6.53167029	      1.84351355	     -8.88323725	     -0.37817990	      1.58203445	      0.06896902	     -3.81652128	      1.61399577	     -1.61778485	      3.81462385	     -0.77267050	      6.24134596	      2.80652352	     -2.80542689	     -6.24380438	      0.77227666	    -32.05475229	     15.76532876	     32.05490604	     25.40753486	     30.38912412	      6.86221753
      3.28800000	     -6.87514797	      0.40835022	     -9.72234260	     -0.37764222	      1.57938687	      0.07044937	     -3.25260261	      1.37585769	     -1.37765866	      3.25097324	     -0.65827560	      5.31901001	      2.39111433	     -2.39163340	     -5.32053336	      0.65832553	    -33.36865340	     13.43458056	     33.36855586	     25.11722016	     28.81530798	      7.47505021
      3.29200000	     -6.86445452	      0.41137630	     -9.71871383	     -0.37747515	      1.57950970	      0.07028786	     -3.25180901	      1.37550309	     -1.37728372	      3.25014232	     -0.65811671	      5.31768249	      2.39056286	     -2.39099169	     -5.31915158	      0.65814771	    -33.36986018	     13.43087853	     33.36975078	     25.11699716	     28.81722735	      7.47617949
      3.29600000	     -6.74732269	      0.43824920	     -9.69650851	     -0.37800955	      1.57990201	      0.07042447	     -3.24242040	      1.37162894	     -1.37322961	      3.24070557	     -0.65622656	      5.30224956	      2.38354661	     -2.38416376	     -5.30377183	      0.65622628	    -33.38027091	     13.39259512	     33.38022445	     25.11011641	     28.85586895	      7.48519026
      3.30000000	     -6.73930410	      0.43908192	     -9.69482301	     -0.37785331	      1.58002307	      0.07030333	     -3.24173012	      1.37112862	     -1.37318286	      3.24003813	     -0.65609329	      5.30116150	      2.38338071	     -2.38334492	     -5.30265265	      0.65608687	    -33.38099894	     13.38955197	     33.38137037	     25.10926517	     28.85987778	      7.48579307
      3.30400000	     -6.61600070	      0.45571610	     -9.68850429	     -0.37831890	      1.58035941	      0.07042548	     -3.23076183	      1.36669335	     -1.36822447	      3.22895920	     -0.65384618	      5.28294797	      2.37477021	     -2.37567097	     -5.28468385	      0.65385874	    -33.39357824	     13.34376459	     33.39335431	     25.09318680	     28.93825918	      7.49201900
      3.30800000	     -6.60752329	      0.45564421	     -9.68853462	     -0.37816161	      1.58060204	      0.07025710	     -3.22975831	      1.36610913	     -1.36798038	      3.22796386	     -0.65366731	      5.28139679	      2.37434318	     -2.37463598	     -5.28298448	      0.65363457	    -33.39489350	     13.33971489	     33.39485564	     25.09153287	     28.94689380	      7.49248863
      3.31200000	     -6.48236152	      0.47110878	     -9.69472655	     -0.37874133	      1.58096968	      0.07045331	     -3.21530959	      1.36007525	     -1.36180205	      3.21350494	     -0.65072939	      5.25765963	      2.36355503	     -2.36416390	     -5.25942659	      0.65072224	    -33.40729675	     13.28017831	     33.40721377	     25.07227776	     29.06736493	      7.49540799
      3.31600000	     -6.47485245	      0.47010096	     -9.69497585	     -0.37847967	      1.58116904	      0.07029552	     -3.21438769	      1.35961545	     -1.36140597	      3.21251285	     -0.65054521	      5.25607146	      2.36287712	     -2.36338211	     -5.25779918	      0.65050833	    -33.40838126	     13.27569103	     33.40866064	     25.07041367	     29.07838654	      7.49554348
      3.32000000	     -6.91956110	      0.32298840	     -9.82954103	     -0.37777196	      1.57927556	      0.07061800	     -3.22726726	      1.36514429	     -1.36683324	      3.22557818	     -0.65314521	      5.27744150	      2.37239850	     -2.37305808	     -5.27904348	      0.65318155	    -34.07316692	     13.32979237	     34.07301766	     24.67672049	     31.39061965	      7.61072084
      3.32400000	     -6.90740971	      0.32606799	     -9.82656760	     -0.37755120	      1.57951582	      0.07048914	     -3.22623987	      1.36455919	     -1.36653516	      3.22453371	     -0.65294037	      5.27575136	      2.37183817	     -2.37206409	     -5.27731408	      0.65296016	    -34.07428806	     13.32515050	     34.07406304	     24.67616302	     31.39613932	      7.61138741
      3.32800000	     -6.75967882	      0.36790269	     -9.81259728	     -0.37822126	      1.58008848	      0.07072860	     -3.21245881	      1.35887693	     -1.36057248	      3.21071870	     -0.65016002	      5.25314973	      2.36150473	     -2.36209778	     -5.25477305	      0.65015596	    -34.08362402	     13.26847709	     34.08338302	     24.66775462	     31.47945491	      7.61616929
      3.33200000	     -6.81941995	      0.53830971	     -9.61182217	     -0.37779676	      1.57944387	      0.07048053	     -3.36866405	      1.42493174	     -1.42679999	      3.36701232	     -0.68175243	      5.50883806	      2.47648785	     -2.47702217	     -5.51042599	      0.68184152	    -35.20065324	     13.91409068	     35.20056759	     24.17612257	     33.58910100	      7.90455014
      3.33600000	     -6.71725951	      0.56582558	     -9.59870141	     -0.37804917	      1.57992859	      0.07056760	     -3.36020949	      1.42145757	     -1.42317218	      3.35845609	     -0.68007247	      5.49488517	      2.47019170	     -2.47074616	     -5.49655155	      0.68006843	    -35.21552726	     13.87910600	     35.21538904	     24.16662346	     33.61274774	      7.91163229
      3.34000000	     -6.70583555	      0.56575335	     -9.59628019	     -0.37783261	      1.58023240	      0.07041607	     -3.35898040	      1.42075001	     -1.42281961	      3.35723762	     -0.67982961	      5.49292428	      2.46955169	     -2.46958622	     -5.49449477	      0.67981517	    -35.21657546	     13.87366154	     35.21633976	     24.16588690	     33.61856588	      7.91214221
      3.34400000	     -6.54341467	      0.58644417	     -9.58284365	     -0.37857717	      1.58081971	      0.07060601	     -3.34051364	      1.41312715	     -1.41480995	      3.33871616	     -0.67609219	      5.46260276	      2.45566718	     -2.45624235	     -5.46427607	      0.67606291	    -35.22516408	     13.79778337	     35.22515072	     24.15657170	     33.71538207	      7.91578918
      3.34800000	     -6.53132536	      0.58420979	     -9.58121253	     -0.37829482	      1.58111753	      0.07046933	     -3.33914132	      1.41236451	     -1.41441034	      3.33732218	     -0.67581844	      5.46035031	      2.45492612	     -2.45492277	     -5.46195405	      0.67577071	    -35.22599334	     13.79150360	     35.22611983	     24.15532801	     33.72580974	      7.91597587
      3.35200000	     -6.58822176	      0.53150655	    -10.11089615	     -0.37732161	      1.58048972	      0.07149529	     -3.31394547	      1.40195967	     -1.40369517	      3.31240662	     -0.67065586	      5.41940519	      2.43633664	     -2.43674837	     -5.42108236	      0.67080946	    -35.58314761	     13.68839010	     35.58309230	     23.90993435	     35.03788523	      7.92707362
